<svg id="Ebene_1" data-name="Ebene 1" xmlns="http://www.w3.org/2000/svg" viewBox="0 0 549.33 634.4"><defs><style>.cls-1,.cls-2,.cls-3,.cls-8{fill:none;}.cls-1,.cls-6{stroke:#66cccc;}.cls-1,.cls-8{stroke-miterlimit:22.93;stroke-width:20px;}.cls-1,.cls-3,.cls-4,.cls-5,.cls-6,.cls-7{fill-rule:evenodd;}.cls-4{fill:#66cccc;}.cls-5{fill:#66cccc;}.cls-6{fill:#66cccc;stroke-miterlimit:10;stroke-width:3px;}.cls-7{fill:#66cccc;}.cls-8{stroke:#66cccc;}</style></defs><title>Alkohol</title><path class="cls-1" d="M69.59,214.09c0,4.65-.21,12,.38,16.37l1.16,11.63c1.24,13.42,5.33,28.35,9.52,41A199.18,199.18,0,0,0,92,309.81l9.29,16.29c1.74,2.6,3.22,5.24,5.06,7.72,3.56,4.81,7,9.82,10.92,14.34s7.9,9.15,12.16,13.41l4.7,4.42c.64.59,1.06,1.05,1.68,1.67l5,4.42A176.34,176.34,0,0,0,158.66,386l23.77,14.25c.84.42,1.33.67,2.26,1.09l8.51,4c1.62.68,2.86,1.21,4.52,1.87,3.21,1.29,6,2.32,9.24,3.53,3,1.13,6.3,2.07,9.62,3.16l10.07,2.7c24.5,5.57,49.07,7.29,74.53,4.06a193,193,0,0,0,54-14.73c14-6.24,27.72-13.41,40-22.69l7.08-5.4c4.18-3.12,7.82-6.77,11.78-10.12l.34-.28a190.78,190.78,0,0,0,13.72-14c2.29-2.87,4.88-5.48,7.08-8.44L447,328.49c1.73-2.58,3.19-5.09,4.76-7.72l4.48-8c5.34-8.79,11.57-25.81,14.78-35.47A195.71,195.71,0,0,0,477.14,252a145.22,145.22,0,0,0,2.6-22.67l.31-21a164.27,164.27,0,0,0-2.87-27.89c-4.15-22.84-10.34-39.8-20.44-60.24-2.69-5.44-6.12-10.57-9.21-15.75L443.87,99c-4-5.71-8.67-12.47-13.45-17.6A16.77,16.77,0,0,1,429,79.82c-.94-1.24-1.94-2.07-3-3.4l-22.31-21c-6.94-6.2-18.1-13.38-25.75-17.76-3.84-2.21-8-4.64-12-6.54-1.65-.76-2.73-1.29-4.3-2.08-2.8-1.41-5.52-2.43-8.49-3.68a174.5,174.5,0,0,0-18.3-6.64c-3.05-.91-6.49-2-9.77-2.7C311.19,12.89,296.55,10,281.54,10h-1.22c-12.51,0-22.17.15-34.78,2a211.25,211.25,0,0,0-21.14,4.2,206.73,206.73,0,0,0-28.29,9.43A198,198,0,0,0,171,38.2L145,56.35c-1.23,1-2.29,1.82-3.46,2.92L135,65.2a111.58,111.58,0,0,0-12.56,12.7l-.42.49-.28.34c-3.55,4.25-7.25,8.37-10.59,12.84l-12.7,19L87.66,131.34a184.93,184.93,0,0,0-7.06,17.91c-4.17,11.48-8.46,29.2-9.45,41.09L70,201.65a117.38,117.38,0,0,0-.35,12.44Z" transform="translate(0 0)"/><path class="cls-2" d="M212.53,200.38c-.2,1.8-2.58,11-3.36,16.47-2.52,17.71-1.49,35.15,7,50.47,7.33,13.15,17.41,23.05,30.48,29.47a59.91,59.91,0,0,0,7,3c1.4.48,6.84,1.8,7.55,2.64V349.9h-28c-3.74,0-10.28-.82-12.71,1.32a5.47,5.47,0,0,0,1.31,9c2.4,1.08,48.69.46,55.48.46s53.11.56,55.49-.46a5.44,5.44,0,0,0,1.35-9c-2.47-2-9-1.29-12.75-1.29-9.3,0-18.67.11-28,0l-.1-47.46c.78-1,4.59-1.65,5.91-2.09,1.94-.65,3.94-1.44,5.7-2.21a69.27,69.27,0,0,0,26.9-20.88c10-13,15.66-27.73,14.65-49.12-1.09-23.24-4.9-31.56-11.26-52.26-2.5-8.16-5.08-16.23-7.71-24.27C323,138,325.53,140.34,307,140.13l7-42.72c7.42-.45,16.13,0,23.72,0h23.72c9.14,0,8.82-10.69.3-10.73H314.34c-4.37,0-7.56-.49-9.38,2.63-1.22,2.08-8,46.27-8.81,50.87h-2.8c-5.05-48.62-59.09-68.59-94.38-41A60.19,60.19,0,0,0,177,155.79c1.94,12,6.74,20.07,12.42,27.52,4,5.2,14.46,14.39,23.07,17.13Z" transform="translate(0 0)"/><path class="cls-3" d="M390.85,528.25c-16.06,1.11-24.24,13.67-23.35,31,.83,16.13,10.56,28,27.69,26.73,15.62-1.17,23.79-14.15,23.12-31-.65-16.2-10.35-27.86-27.46-26.69Z" transform="translate(0 0)"/><path class="cls-3" d="M273.11,528.37c-15.75,1.72-23.58,14.75-22.11,32.18,1.32,15.69,11.59,27.34,28.78,25.28,15.27-1.83,23.16-15.27,21.87-32.27C300.45,537.77,290.34,526.5,273.11,528.37Z" transform="translate(0 0)"/><path class="cls-4" d="M343.84,550.41H325.58V529.29l-13.35-.09v55.74h13.24l.12-22.93h18.15l.11,23H357l.06-55.69L344,529.2C343.35,531.78,343.84,546.61,343.84,550.41Z" transform="translate(0 0)"/><path class="cls-3" d="M102.23,585h13.43l3.26-12.74h16.36c1.5,3.57,1.89,9.63,3.4,12.78h13.79c-.21-1.79-7.74-25.38-8.49-27.81l-6.46-20.93c-.52-1.68-1.33-6-2.54-7H119.75c-1.14.83-2,5.18-2.5,6.77-2,6.55-14.85,46.89-15,49Z" transform="translate(0 0)"/><path class="cls-4" d="M203.12,585h13.13c.42-4-.52-10.79.12-14.19.19-1,5.36-7.93,6.1-8.5L235.41,585h14.44c-.21-1.32-15-25.59-17-28.85-3.54-5.92-3.94-2.91,3.89-13.43,1.63-2.19,9.32-12,10-13.48H232.25l-7.77,11c-.88,1.16-7,10.19-8.15,11V529.34l-13.13-.14c-.36,1-.57,53.28-.08,55.76Z" transform="translate(0 0)"/><polygon class="cls-4" points="428.61 583.89 428.7 585.01 463.46 585 463.52 573.75 441.95 573.72 441.95 529.36 440.82 529.21 428.62 529.23 428.61 583.89"/><path class="cls-4" d="M158.58,584.85h34.79V574c-3.46,0-19.58.58-21.49-.32l-.09-44.22H158.66l-.07,55.37Z" transform="translate(0 0)"/><path class="cls-5" d="M158.58,584.85a1.14,1.14,0,0,0,.7.28H176c4.49,0,13.61.52,17.55-.12.26-1.65.34-10-.09-11.32l-21.37-.07c0-5.21.33-42.61-.2-44.43l-11.72-.09c-1.34,0-1,0-1.52.36H171.8l.09,44.22c1.91.9,18,.32,21.49.32v10.83Z" transform="translate(0 0)"/><path class="cls-6" d="M222.6,204.88h62.85l.15-.88c1.76-8.1,2.88-17.39,4.24-25.67l.11-.67c.63-3.79,3.21-18.36,4-24.35l.39-2.39h-.15v-.06h-1.3c-8.53-.28-43.29-.07-53.06,0h-1.17c-1.91,5.16-6.18,20.48-8.1,26.9-1.14,3.8-5.92,19.15-7.49,25.09l-.59,2h.18v.07Zm73.68,0H332.6a9.6,9.6,0,0,0-.18-1c-.43-2.27-1.72-6.76-3.32-12-3.14-10.32-7.47-23.4-8.83-27.62l-.33-1c-1.2-4-2.48-8.76-4-12.31h0v-.08H305.27l-9,54Zm-47.43-64.72h33.72a9.68,9.68,0,0,0-.09-1.06,38.75,38.75,0,0,0-1.18-6.31h0v-.06a47.65,47.65,0,0,0-1.66-5.07h0c-.17-.43-.33-.84-.5-1.23-.3-.72-.72-1.62-1.21-2.59-1.38-2.82-3.26-6.17-4.8-7.59a2.71,2.71,0,0,0-.41-.35h0l-.08-.06c-1.13,1.31-2,1.91-2.86,2.88-2.62,3-15.14,15-19.46,19.77L248.66,140h.25l-.09.14Zm-8.34-7.3.15-.13c1.57-1,4.84-4.63,6-5.86,3.47-3.52,7.76-7.75,11.7-11.75,2.86-2.84,5.76-5.83,6.53-6.86l.13-.13h0a1.71,1.71,0,0,0-.21-.26,4.17,4.17,0,0,0-1-.92,31.56,31.56,0,0,0-2.71-1.85,54.84,54.84,0,0,0-4.91-2.74l-2-1c-1-.42-2.05-.85-3.23-1.27a34.72,34.72,0,0,0-9.59-2.25,5.93,5.93,0,0,1-.84-.06h0v35h0Zm-35.6-24.43c.92.9,1.83,1.81,2.73,2.72,3,3.17,8,8.26,12.52,12.74,3.2,3.3,7.87,8,9.39,9.07a1.57,1.57,0,0,0,.26.19V97.72h0l-.91.1a37.92,37.92,0,0,0-8.86,2,44.68,44.68,0,0,0-4.33,1.7l-.39.18a46.3,46.3,0,0,0-5.29,2.83c-.17.1-.33.21-.49.32a25.55,25.55,0,0,0-4,2.86l-.69.44.12.18-.11.16Zm-17.56,31.69h33.9c-.16-.21-.43-.52-.78-.91-3.08-3.59-14.75-14.92-16.94-17.16-1.91-2-4.24-4-5.91-6l-.26.13-.14-.11-.44.53a2.43,2.43,0,0,0-.2.25,40.55,40.55,0,0,0-4.15,6.74,30,30,0,0,0-1.4,2.91,51.43,51.43,0,0,0-2.25,6.27,36.35,36.35,0,0,0-1.42,7.31h0Zm10.14,35.8h0l.11.07c1.74-2,4.17-4.25,6.16-6.24l1.29-1.29,13.83-13.8a43.24,43.24,0,0,0,3.32-3.45,1.87,1.87,0,0,1,.3-.26h-.11v0H187.28v.49a14.81,14.81,0,0,0,.1,2c.46,4.14,2.45,9.71,4.68,14.33,1.83,3.86,3.84,7.09,5.35,8.2l.07.05Zm7.66,7.78.39.35a30.67,30.67,0,0,0,4.09,3,23.23,23.23,0,0,0,5.61,2.87l.56.15L223,166h0v-.08a3,3,0,0,0-.45.35A75.8,75.8,0,0,0,216,172.5c-1.55,1.53-3.18,3.17-4.69,4.7-2.41,2.34-5.48,5.33-6.14,6.47h0ZM272,349.9h10.59V304.06h0v-.16H271.92v46Zm23.7-209.78-2.36-.07c-4-47.51-59.25-69-94.49-40.8-12.76,10.22-26.19,30.36-21.76,56.63a58.52,58.52,0,0,0,28.75,41.25c1.74,1,5.32,2.47,6.67,3.43,0,.37-2.72,12-3.33,16.3-2.51,17.72-1.47,35.15,7,50.41,9,16.08,23.06,29.15,45.07,34.79v47.78c-4.37.34-22.12.06-27.89.06-3.65,0-10.21-.69-12.74,1.11-3.12,2.21-2.47,7.48,1,9.11,2.41,1.11,48.71.5,55.57.5s52.88.58,55.46-.42a5.43,5.43,0,0,0,2.81-7.15,5.54,5.54,0,0,0-1.23-1.76c-2.34-2.19-8.91-1.4-12.75-1.4-6.1,0-23.4.29-28.14-.05l-.06-47.8c9.19-2.61,15.15-5.06,22-9.61,20.88-13.77,32.42-36.44,31.12-64.23-1.05-22.49-4.84-32.14-11.28-52.42-2.58-8.13-5.15-16.15-7.69-24.25-4.47-14.28-2.58-11-20.42-11.44l7-42.77c15.87-.21,31.79.05,47.61,0,3.67,0,6.43-1.54,6.48-5.28s-2.73-5.44-6.47-5.45H314.09c-4.35,0-7.45-.48-9.19,2.69-1.16,2.12-6.68,38.31-7.92,45.83C296.66,137.2,296.6,139.48,295.66,140.12Zm38.9,75.55-114.43-.07h0v.16a123.43,123.43,0,0,0-1.32,19.2,56.13,56.13,0,0,0,12,35.36,59.63,59.63,0,0,0,6.41,7.07,57.39,57.39,0,0,0,27.2,14.35l.38.08,1.13.23.82.15.69.12,1.25.19H269a58.08,58.08,0,0,0,54.37-21.9l.15-.19a56.13,56.13,0,0,0,10.19-19.78c2.7-9.72,2.77-20.55,1-34.27l-.08-.7Z" transform="translate(0 0)"/><path class="cls-7" d="M463.54,584.65l-34.78.16V529.56h12.9V571.2c0,1.77-.18,1.73.4,2.57V529.23l-13.4,0-.12,55.86c5.95.42,22.73.06,30.72.06h2.15C464.05,585.13,463.16,585.05,463.54,584.65ZM391,539.88c-8.79,1.8-10.34,11.44-9.83,19.22.53,8.31,4.55,16.85,13.66,15.22,14.49-2.58,13.33-38-3.83-34.44Zm-1.66-11.47C373.6,530.33,366,543.52,367.63,561c1.44,15.39,11.82,27.14,29.17,24.76,15-2.06,22.79-15.27,21.4-32.52C416.93,537.53,406.66,526.3,389.34,528.41ZM312.23,585h13.25l.1-22.83,18.19-.12.07,23H357l.07-55.74H344l-.13,21.15H325.58V529.34l-13.23-.14L312.23,585Zm-37.83-45.1c-8.13,1.69-10.49,10.33-9.78,19.67.61,8.1,4.77,16.59,13.85,14.71,14.09-2.91,13.12-38-4.07-34.38Zm-1.17-11.54c-15.86,1.67-23.6,14.71-22.24,32,1.22,15.66,11.35,27.43,28.58,25.49,15.49-1.75,23.21-15.18,22.1-32-1-15.88-11.19-27.31-28.44-25.49Zm-56.91,22.78V529.25H203V585h13.24c.47-4-.51-10.9.14-14.29.15-.77,5.22-7.71,6-8.31L235.44,585h14.49l-19.75-33.38c1.84-3.21,14.43-18.52,16.59-22.34-4.1-.19-9-.13-13.09-.06-1.89,0-1.52.15-3.44,2.9-1,1.41-1.82,2.51-2.83,3.93-1.19,1.67-10.33,14.78-11.08,15.09ZM158.6,584.94l34.86.07.06-11.26H172V529.29l-13.3-.09-.08,55.7Zm-56.49,0,11,.08c3.48.06,2.39.76,4.26-6.71.49-2,1-4.14,1.57-6.07h16.33L138.55,585h13.89l-17.09-55.68-16-.08L102.07,585Zm19.45-23.1,11.06.06-5.42-22.63-.57,1a12.79,12.79,0,0,0-.33,1.49l-4.74,20.08Zm342,22.83V573.78H442.08c-.58-.84-.42-.8-.4-2.57V529.56H428.76v55.25l34.78-.16Z" transform="translate(0 0)"/><path class="cls-8" d="M10,492.55v.2c0,4.15.65,4.79,2.45,9.33l11.08,28.54c.84,2.33,1.79,4.77,2.72,7.11.46,1.14,1,2.26,1.4,3.52s.73,2.5,1.1,3.81c2.47,8.76.77,17.44-2.32,25.11-.51,1.27-.91,2.46-1.35,3.56L12.54,606.05c-1.79,4.46-2.52,5.41-2.54,9.55v.2c0,4.12,4.42,8.6,8.59,8.6H530.73c4.17,0,8.6-4.48,8.6-8.6v-.2c0-4.16-.66-4.8-2.46-9.33l-13.8-35.66c-5.62-14.16-4.59-21.66,1.17-36,4.71-11.71,9.18-24.2,13.9-35.87,1-2.46,1.16-2.81,1.19-4.3v-1.89c0-4.17-4.43-8.61-8.6-8.61H18.59c-4.17,0-8.59,4.44-8.59,8.61Z" transform="translate(0 0)"/></svg>
