<svg id="Ebene_1" data-name="Ebene 1" xmlns="http://www.w3.org/2000/svg" viewBox="0 0 560 646.79"><defs><style>.cls-1{fill:none;stroke-miterlimit:22.93;stroke-width:20px;}.cls-1,.cls-2{stroke:red;}.cls-1,.cls-2,.cls-3{fill-rule:evenodd;}.cls-2,.cls-3{fill:red;}.cls-2{stroke-miterlimit:10;stroke-width:3px;}</style></defs><title>Piercing</title><path class="cls-1" d="M126.23,230.74a216.91,216.91,0,0,0,14.68,79.67,203.86,203.86,0,0,0,30.83,53.26c1,1.21,1.85,2.47,2.89,3.59s2.09,2.34,3,3.49,1.93,2.1,3,3.45l19.55,18.92c2.46,2.07,4.66,3.79,7.12,5.82a17,17,0,0,0,1.76,1.3l5.65,4.23A163.75,163.75,0,0,0,234.55,417c7.9,4,13.48,7,21.85,10.48,9.84,4.13,18.62,6.55,29.21,9.59,12.67,3.63,33.13,5.93,45.8,5.93,20.24,0,35.87-1.34,54-5.85a172.55,172.55,0,0,0,19.66-5.87l13.9-5.5c7.32-3.07,14.36-6.95,21.29-10.71,12.44-6.74,23.58-15.82,34.34-24.9l2.66-2.44c3.14-3.2,6.72-6,9.7-9.37l3.07-3.4c4.34-4.3,7.95-9.33,11.77-14.1,5.8-7.22,10.66-15.13,15.43-23.05l2.32-4.15c8.51-16.47,15.29-32.81,19.73-51.1,4.09-16.84,5.78-33.49,5.78-52.8l-.36-12.24a207.94,207.94,0,0,0-3-22.59c-.75-3.82-1.43-7-2.22-10.73a174.6,174.6,0,0,0-9.15-29l-7.89-17.65c-1.52-3-2.93-5.48-4.53-8.41a144.92,144.92,0,0,0-9.84-15.69l-5.25-7.35c-1.83-2.46-3.72-4.8-5.71-7.24-1.05-1.29-1.92-2.2-2.94-3.52a17.56,17.56,0,0,0-1.48-1.59L475.24,75.85a18.47,18.47,0,0,1-1.69-1.37,14.77,14.77,0,0,0-1.81-1.6c-1.2-.94-2.16-1.84-3.31-2.82l-11-8.42c-8.91-6.44-18.29-11.68-27.94-17-1.48-.81-2.86-1.26-4.42-2C405.89,32.9,382,26.36,360.67,24a262.13,262.13,0,0,0-30.91-1.36h-1.08c-17,0-38.32,4-54.52,9.12l-32,12.91c-7,3.76-14,7.35-20.57,11.76-6.37,4.26-12.41,8.87-18.44,13.56-1.19.92-2.28,1.93-3.51,3-4.75,4-9,8.1-13.42,12.45l-2.13,2.3-.15.19-.16.18-6.6,7.37c-1,1.21-2,2.24-3,3.42A179.56,179.56,0,0,0,158.2,121c-1.57,2.62-3.31,5.27-4.86,8.08a217.75,217.75,0,0,0-23.8,66.11A181.48,181.48,0,0,0,126.23,230.74Z" transform="translate(-56 -12.61)"/><path class="cls-1" d="M66,514.84c0,5.42,3.16,11.45,5.11,16.35l10.83,28c5.61,13.88,5.71,22.93.1,36.79L68.43,631.05A29.47,29.47,0,0,0,66,639v2a9.08,9.08,0,0,0,2.79,5.64,10,10,0,0,0,6.06,2.79h522.3c4.08,0,8.85-4.34,8.85-8.85,0-5.43-3.16-11.45-5.11-16.35l-10.83-28c-5.6-13.84-5.72-22.89-.1-36.78,1.45-3.6,16-40.28,16-42.54v-.15c0-3.18-.25-5.69-3-8.11a10.16,10.16,0,0,0-6.56-2.64H75.53C70.66,506,66,510.23,66,514.84Z" transform="translate(-56 -12.61)"/><path class="cls-2" d="M273.45,276.07c0,13.49-.67,28.62.14,41.89,2,32.32,27,63.23,62.58,63.22,36.11,0,60.87-30.74,63-62.87.35-5.27.1-41.68.17-41.92.83-1.24,6.58-3.16,8.36-4a134.85,134.85,0,0,0,23.74-14,170.87,170.87,0,0,0,13.62-11.24c2.65-2.34,10-10.32,12.19-13,5.68-7,16.65-21.73,19.47-30.59a26.49,26.49,0,0,0-1.85-20.65c-3.51-6.47-6.86-8-13.39-11.8A150,150,0,0,1,433,149.45L424.07,140c-4-4.7-11.06-11.82-16.32-15.34a52.89,52.89,0,0,0-68,7.8c-1,1.09-2.17,2.21-3.24,3.28-3.1-1.88-11.12-14.64-31.19-18.88a52.53,52.53,0,0,0-39.91,7.59c-9.58,6.3-17,16.53-25.31,24.74l-9.76,8.62c-1.2,1-2.28,1.83-3.61,2.86a132.13,132.13,0,0,1-15,10.15c-6.32,3.6-9.88,5.31-13.45,11.4A27.23,27.23,0,0,0,196,203.17c3.6,11.83,21.81,34.92,31.41,43.51,10.82,9.68,16,13.73,29.08,21.3,2.7,1.55,5.35,2.81,8.33,4.27,2.46,1.2,6.7,2.59,8.68,3.82ZM284,215.34c3.16-.82,6.85-2.52,10.46-3.55,10.39-3,25.51-5.63,36.25-5.47l.08,50.61,10.43-.05.06-50.62c16.25.44,34.17,3.51,47.52,9.26.47,16.51,0,33.72,0,50.31V291c0,8.22.31,17-.06,25.2-.94,20.56-12,38-28.19,47.25-4.6,2.62-12.64,5.78-18.93,6l-.13-39.18-10.37.07v39.12c-6.64-.36-14.26-3.35-19.17-6.2a49.57,49.57,0,0,1-7.45-5.15A57.79,57.79,0,0,1,284,315.91c-.65-16.33-.05-34-.05-50.42s-.48-33.73,0-50.15Zm-71.66-31.93c.77-.78,6.54-4,8-4.88a149.36,149.36,0,0,0,15.15-10.72c13.43-10.64,24.52-25.29,32.22-31.45,9.57-7.65,25.1-12.26,40.18-7.13,10.49,3.58,13.52,7.51,19.22,12.77,1.82,1.68,7.4,8.57,9.36,9.76,1.05-1.07,2.25-2.18,3.21-3.3l9.42-10c4.93-4.07,8.66-6.84,16.15-9.36,14.7-5,30.66-.24,39.87,7.36,7.1,5.86,12.44,13,18.9,19.57a161,161,0,0,0,32.51,25c1.2.7,3,1.4,3.86,2.38-5.76.38-12.56.07-18.44.07-16.59,0-30.13-3-44.63-10.28-29.05-14.62-35-1-61.19-1-16-.05-20.84-4.13-31.42-5.31-12.48-1.39-20.41,1.91-29.6,6.53a95.69,95.69,0,0,1-27.53,8.91,106.26,106.26,0,0,1-17.27,1.19c-5.37,0-12.91.43-18-.1Zm-2.45,11.48c12.18-.87,24.07.66,36.43-1,32.48-4.29,37.79-18.55,58.25-15.68,5.14.72,9.94,2.55,15.13,3.6a84.71,84.71,0,0,0,33.87-.09c5.12-1,9.95-2.92,15.17-3.58,13.17-1.67,19.48,3.4,29,7.64,25.25,11.26,40,8.31,65.17,9-1.42,1.76-12.74,7.4-14.47,8.26-10.83,5.36-37.67,16.09-49.09,17.77V208.35c-6.47-4.33-19.13-8.1-28.07-10-27.83-5.89-65-4.81-91.38,6.68-2.12.92-4.71,2.52-6.42,3.07l0,12.67c-3.17-.09-13.91-3.71-17.4-4.85-5.6-1.83-11.15-3.79-16.44-6-4.38-1.85-25.06-11.05-29.32-14.64l-.39-.37Zm110.66,81.16c1.63-.91,9.79-1.81,12.4-2.24,9.47-1.56,8.75-.46,10.23-4l6.62-15.17c.56-1.28,1.59-4.1,2.37-4.89,1.09,1.54,7.62,17.07,8.93,20.13s.71,2.44,4.16,3l18.48,3c-.52,1.44-5.76,6.54-7.2,8.25-8.63,10.31-8.66,6.78-7.59,13.94.35,2.37.69,4.56,1.05,6.92.46,3.08,2,10.49,1.84,13.22-2.79-1.3-18.46-11.39-19.68-11.4-1.63,0-16.31,10.15-19.87,11.32L336,293.42c-2.57-3.35-5.15-5.74-7.79-8.68l-7.63-8.69Zm78.79-42.92c.57-1,.47-.73,1.82-1.06a253.9,253.9,0,0,0,46.22-16l14.3-7.11c-1,2.37-4.2,6.83-5.69,8.92a141.65,141.65,0,0,1-24.76,26.65c-7.29,6.11-23.81,17.07-31.81,19.23-.37-5.94-.08-23.46-.08-30.58ZM273.42,263.66c-3.51-.5-16.08-8-19.09-9.91a119.71,119.71,0,0,1-12.82-9.32,43,43,0,0,1-3.84-3.31c-1.31-1.3-2.64-2.16-3.95-3.54s-2.34-2.35-3.58-3.56-2.23-2.63-3.54-4a44.42,44.42,0,0,1-3.33-3.82c-2.51-3.14-10.92-13.82-12.09-17.27,1.71.52,5.43,2.72,7.3,3.67A251.45,251.45,0,0,0,256.62,228l16.83,4.66,0,31Zm68.92,20.22c1.82-.91,5.69-.2,7-1.76.66-.78,1.77-4.71,2.81-5.79a17,17,0,0,1,1.56,3.27c.22.5,1.1,2.73,1.64,3l6.54,1.1c-.49,1.69-3.19,3.42-4.25,5-1.24,1.84.19,5.79.42,8.22-1.59-.6-5-3.23-6.17-3.08-.47.06-4.77,2.66-5.7,3.14,0-2.12,1.55-6.28.54-8s-3.45-3.35-4.4-5.12Zm-47.91,29.45.1-11.22h10.21c.39,1.56.34,9.55.06,11.3l-10.37-.08Zm57.69,28.32.13-11.33,10.36.08-.1,11.24Zm-47.19-67.82.11-11.26h10.37l-.12,11.3Z" transform="translate(-56 -12.61)"/><path class="cls-3" d="M528.06,603.48V576.79L507,576.73l0,11.15H516v9.38c-14.08,5-22.27-5.42-20.74-19.55.7-6.42,3.4-10.93,8.2-13.32,8.66-4.3,14.78,2.09,16.5,2.89l7-8.51c-1.93-3.12-9.2-6.36-13.6-7.06-16.57-2.66-32.1,8.72-32.19,29.2-.13,30,30.24,36.24,46.92,22.56Zm-69-11.43c-1.28-1.86-3.49-7.6-4.51-10-1.47-3.45-3.33-6.87-5-10l-9-17.26c-.52-1.1-.49-1.66-1.63-2.33H425.5v56.81l13,0c0-7,.16-14,0-20.81-.13-4.67-1.95-15.52-1.52-18.95,1,1.12,3.77,8,4.6,9.9,1.56,3.57,3.31,6.66,5,10l10,19.88h14V552.51l-12.9-.06c-.89,11.64,0,25.78,1.52,37.62v1.78a.63.63,0,0,1-.06.2Zm-60.18,17.13,13.66.07V552.44H398.94l-.11,56.74ZM390.34,602c-.33-.87-6.12-8-7.32-8.59-6,8-23,8.29-23.63-11.51-.5-15.74,10.64-22.52,19.69-17.07,1.38.83,2.22,1.76,3.37,2.44,1.24-.85,2.52-2.8,3.66-4.17a33.19,33.19,0,0,0,3.42-4.36c-11.82-13.91-44.16-8.69-44.09,22.49,0,13,5.75,22.16,14.41,26.36,11.49,5.56,24.89,1.73,30.49-5.59ZM308,578.38c7.61.09,15.35.6,15.84-7.35.56-8.94-8.42-7.92-15.8-7.79l0,15.14Zm-13.67,30.87.14-56.81c12,0,30.8-1.93,38,5.29,3.77,3.76,5.68,9.5,4.35,16.7-1.53,8.27-5.81,9.57-9.29,12.34L340,609.24H325.28c-1.17-.3-9.16-17.15-10.86-20.08H308l0,20.07Zm-48,0h36.81l0-11.46-23.13,0V585.7h18.93v-11.4l-18.95-.07V563.76h22.25l.07-11.22-35.83-.09-.15,56.82Zm-26.67-.19,13.66.17V552.53l-13.59-.08-.07,56.62Zm-38.83-29.62c6.63.92,15.51.49,15.77-8.08.25-8.21-8.14-9.11-15.72-8l-.05,16.11Zm-13.65,29.71.1-56.68c6.44-.37,20.77-.52,26.74.5,20.39,3.48,18.67,24.71,9.34,32.55-6.39,5.38-13.06,4.32-22.51,4.85v18.87Z" transform="translate(-56 -12.61)"/></svg>
