<svg id="Ebene_1" data-name="Ebene 1" xmlns="http://www.w3.org/2000/svg" viewBox="0 0 554 639.82"><defs><style>.cls-1{fill:none;stroke-miterlimit:22.93;stroke-width:20px;}.cls-1,.cls-3{stroke:red;}.cls-1,.cls-2,.cls-3{fill-rule:evenodd;}.cls-2,.cls-3{fill:red;}.cls-3{stroke-miterlimit:10;stroke-width:3px;}</style></defs><title>Rauchen</title><path class="cls-1" d="M331.05,441.7h11.61c13.66,0,31.86-2.95,44.49-6.09a213,213,0,0,0,41.41-15.32L441,413.58c2.71-1.63,5.21-3.08,7.86-4.78l11.1-7.71c6-4.54,11.78-9.42,17.41-14.38a146.8,146.8,0,0,0,12.65-13c1-1.24,1.85-1.88,2.93-3.23s2-2.22,3-3.47a188.78,188.78,0,0,0,20.71-29.9,247.12,247.12,0,0,0,12.49-25.8,202.85,202.85,0,0,0,9.13-28.83c7.49-29.81,7.6-66.95,0-97.21-3.61-14.4-8.22-28.55-14.89-41.87L519.12,135c-.84-1.55-1.44-2.69-2.32-4.17l-12.33-19.13A140.14,140.14,0,0,0,491.88,96c-2.93-3.15-5.76-6.68-8.95-9.5-2.3-2-4.25-4.46-6.63-6.36L457,64.54C447.9,58.27,435.33,50,425.14,45.79l-8.73-3.92c-3.12-1.28-5.89-2.3-9.13-3.51-13.19-4.94-26.48-7.83-40.36-10.22-11-1.9-22.19-2-33.41-2.05H330c-19.85,0-45.6,5.4-64.18,12.36-9.89,3.71-21.33,8.52-30.39,14-1.42.87-2.68,1.53-4.1,2.4-2.72,1.64-5.13,3.09-7.79,4.86a222.26,222.26,0,0,0-20.19,15c-.72.61-1,1.09-1.76,1.67l-8.09,7.28A70.88,70.88,0,0,0,187,90.48c-3.58,3.89-7.19,7.52-10.48,11.74-1.93,2.47-3.71,4.58-5.56,7.09a173.87,173.87,0,0,0-15.13,23.51l-6.49,12.65c-.73,1.44-1.33,3-2.06,4.44-5,10.18-9.93,27.14-12.57,38.39a196.75,196.75,0,0,0-4.52,58.1c.35,4.35.28,6.51.94,11.71a219,219,0,0,0,9.29,42,167.14,167.14,0,0,0,9.15,22.66l11.18,20.61c8.49,12.94,12.49,18,22,29.31l6.58,7.1.34.34,1.34,1.4.16.18c3.35,3.64,14.5,13.14,17.79,15.71a173.43,173.43,0,0,0,15,10.68c1.41.89,2.43,1.69,3.92,2.57,6.77,4,13.45,8.28,20.8,11.32,6.3,2.6,11,4.89,17.86,7.44C285.81,436.67,309.85,441.7,331.05,441.7Z" transform="translate(-59 -16.09)"/><path class="cls-1" d="M69,512.85V513c0,4,.64,4.7,2.49,9.29L79.89,544c.86,2.38,1.86,4.81,2.78,7.14,1.28,3.23,4.47,11.47,5.26,14.57a26.93,26.93,0,0,1,.91,6.61c.4,5,.39.75,0,6.84a30,30,0,0,1-.79,4.34A41.56,41.56,0,0,1,85.59,591l-11.25,29.1c-.91,2.58-1.76,4.57-2.75,7.17-.92,2.43-2.3,5.36-2.59,8.31v2.09a8.47,8.47,0,0,0,3,5.57,10.9,10.9,0,0,0,6.93,2.64H593.09a10.83,10.83,0,0,0,6.74-2.49,8.32,8.32,0,0,0,3.17-5.7v-2.07c-.27-2.86-1.56-5.72-2.49-8.11l-8.39-21.7c-2.5-6.23-8-19.41-8.85-26a36.73,36.73,0,0,1,.66-13.54,53.65,53.65,0,0,1,2.48-7.44c5.21-12.91,10.22-27.14,15.42-40a16.13,16.13,0,0,0,1.17-4.42v-2.11a9.27,9.27,0,0,0-3.15-5.91,10.3,10.3,0,0,0-6.42-2.46H78.57C73.52,504,69,508.31,69,512.85Z" transform="translate(-59 -16.09)"/><path class="cls-2" d="M163.28,606.13l13.44,0,.05-19.82,6.34,0,10.32,19.81h28.81l3.28-12.85,16.6,0,3.2,12.91h14c-.21-2.72-3.24-11-4.21-14.16-1.43-4.62-3-9.45-4.36-14.11L243.07,553c-1.28-4.44,1.43-3.21-17.13-3.19L213,592c-.72,2.39-1.49,4.68-2.22,7-.78,2.56-1.46,5.79-2.44,7L196,583.76a15.87,15.87,0,0,0,9.26-12.11c1.19-6.5-.75-13.48-4.16-16.61-7.74-7.09-25.32-5.19-37.77-5.19l-.06,56.28Zm13.49-30.57,0-15a39.64,39.64,0,0,1,11.07.49c3.14.92,4.79,3.09,4.53,7.18-.45,7.38-8.29,8.21-15.65,7.29Zm51.39,7.22,5.52-22.67c1.17,1.52,2.33,8.49,2.93,11,.86,3.72,2.24,7.92,2.79,11.64l-11.24,0ZM309.34,550l-12.86-.14c-.6,8.46-.07,19-.07,27.67,0,8.42,0,18-9.44,18s-9.42-9.49-9.42-18,.54-19.24-.06-27.66H264.16c-.33,7-.35,33.11.73,39.16,2.07,11.57,8.87,18.09,21.74,18.18,24.26.19,22.74-21.24,22.74-37.21,0-6.58.19-13.45,0-20Zm54.43,48.75c-1.22-1.49-6-7.43-7.1-8.13-1.38,1.09-1.51,1.47-2.93,2.45a13.21,13.21,0,0,1-13.16,1.25c-9.67-4.81-10.11-25.3-1.17-31.68,7.51-5.36,13-.22,16.58,1.95,2.33-2.57,4.78-5.53,6.85-8.27-1.55-3-8.26-6.37-13-7.18-15.72-2.71-30.87,9.39-30.61,29.76.27,20.85,16,31.24,32,27.7,4.88-1.08,11.29-5,12.55-7.85Zm8.38,7.34,13.4.07.09-23.22h18.41l0,23.21h13.24l.07-56.2-13.26-.09-.07,21.32-18.27.06-.17-21.3-13.44-.07,0,56.22Zm58.35.05h36.32l0-11.26L444,594.79V582.85h18.7l.05-11.18-18.68-.15L444,561.24c2.3-.67,18.32-.22,22-.22l.07-11.17h-35.5l-.05,56.26Zm47.35,0h13.36l.13-19.74,6.53-.1c1.07,2.93,3.5,7.05,5.05,10,1.66,3.15,3.29,6.89,5.14,9.83H522.9c-1.39-3.41-4-7.37-5.94-10.89s-4.55-7.59-6.22-11.23a2.7,2.7,0,0,1,.56-.49c3.7-2.77,7.09-4.27,8.49-11.64,1.29-6.74-.72-13.7-4.3-16.9-7.91-7.08-25.28-5.12-37.56-5.12l-.08,56.28Zm13.49-30.52.07-15.07c7.37-.5,16.11-.84,15.58,7.73C506.51,576,498.76,576,491.34,575.61Z" transform="translate(-59 -16.09)"/><path class="cls-3" d="M313.6,140.76c-4.7,5-10.32,9.92-14.66,14.64-5.62,6.13-16.08,4.58-20.23-1.31-3.54-5-3.69-11.67.38-16.51,1.15-1.37,2.69-2.54,2.19-5.44-.76-4.47-6-5-8.72-2.13A23.29,23.29,0,0,0,294,168.88c8.58-1.66,13.52-7.89,17.66-12.06,2.52-2.54,4.79-4.84,7.32-7.38,2.31-2.3,4.31-5.19,8.61-6.43a13.29,13.29,0,0,1,17,11.14c.72,6-1.68,6.73-3.86,10.53-6.08,10.67-2.42,24.86,7.71,31.52,7.18,4.72,19.55,5.81,22.81,1.07a5,5,0,0,0-5.18-7.59c-5.11.82-8.11,1.1-12.15-1.71-5.93-4.11-9.05-13.39-3-20.66,1.51-1.84,1.75-1.66,2.64-4.52a23.31,23.31,0,0,0-13.8-28.68c-1.62-.61-4.48-.83-5.83-1.64,4.74-5,9.73-9.73,14.63-14.73,3.77-3.84,9.68-12,19.59-7.94,6.27,2.56,11.18,11.46,6.18,19.38-3,4.69-10.28,8.9-13.6,16.14a24.16,24.16,0,0,0,1.6,23.32c2.42,3.78,10.69,11.6,14.24,15.17,1.82,1.82,5.69,6.09,9.39,2.17,3.94-4.17-1.24-8-2.73-9.52-3.76-3.81-12.1-11.08-13.93-15.81-5.14-13.26,9.41-18.21,14.37-27.93A23.77,23.77,0,0,0,386,120.49c-1.07-15.85-18.49-27.6-34.63-18.61-8.05,4.48-23.71,25.58-31.08,28.06-9,3-13.57-3.81-15.79-4.45a4.94,4.94,0,0,0-5.36,1.74c-3.08,4.33,1.36,7.67,3.66,9.21a22.59,22.59,0,0,0,4.93,2.6,26,26,0,0,0,2.88.89c.48.11,1,.16,1.43.26Z" transform="translate(-59 -16.09)"/><path class="cls-3" d="M289.74,117c-6.46,2.57-2.74,12.2,3.89,9.83C299.83,124.61,296.66,114.24,289.74,117Z" transform="translate(-59 -16.09)"/><path class="cls-3" d="M261.28,331.09c.73,1.79,16.45,17,17.21,17.5l33.7-33.8c-.63-1.15-15.63-16.25-17.09-17.28-6.57,7.11-17.82,17.56-25.26,25.1l-8.56,8.48ZM421.36,205.38c3.45-7.86-12.14-20.92-17-17.62-4.14,2.82,6.7,20,17,17.62ZM319.42,307.53c2.17-2.26,4.33-4.35,6.6-6.66,1.39-1.41,4.72-5.55,7.42-5.66a4.93,4.93,0,0,1,4.43,7.6c-1.07,1.64-4.79,5-6.38,6.61L292.12,349c-2.3,2.31-4.34,4.37-6.65,6.68-1.64,1.64-4.28,5.49-8,4.88-2.23-.36-5.9-4.69-7.28-6.07-5.89-5.88-14.46-14.11-19.59-19.72-3.47-3.79.25-7.13,2-8.9L377.36,200.74c4.57-4.64,15.29-15.79,19.78-19.88,12.67-11.52,36.45,8.3,34.49,24.31-.52,4.26-2.75,6.61-4.72,8.58-6.49,6.48-14.8,15.13-21.4,21.33L367.79,272.9c-1.54,1.57-5,5.94-8.84,2.67-3.32-2.8-1.55-6.29.65-8.47,8.86-8.79,17.5-17.48,26.25-26.39,4.44-4.52,8.66-8.72,13.12-13.2,1.17-1.17,12.37-11.48,13.18-13.47-7.12-2.43-14.16-9.74-16.88-16.91-1.58.71-10,9.69-11.94,11.64-3.95,4-7.62,7.69-11.59,11.65-7.83,7.84-15.33,15.48-23.17,23.32l-34.77,35c-2,2-10.5,10-11.53,11.82Z" transform="translate(-59 -16.09)"/><path class="cls-3" d="M342.24,285.22c-6,2.25-3,11.53,3.19,9.43C351.38,292.64,349,282.68,342.24,285.22Z" transform="translate(-59 -16.09)"/></svg>
