<svg id="Ebene_1" data-name="Ebene 1" xmlns="http://www.w3.org/2000/svg" viewBox="0 0 579.54 669.46"><defs><style>.cls-1{fill:none;stroke-miterlimit:22.93;stroke-width:20px;}.cls-1,.cls-2{stroke:red;}.cls-1,.cls-2,.cls-3{fill-rule:evenodd;}.cls-2,.cls-3{fill:red;}.cls-2{stroke-miterlimit:10;stroke-width:3px;}</style></defs><title>Tattoo</title><path class="cls-1" d="M114.46,223.85c0,26.9,1.78,42.47,9.08,68,3.39,11.91,11.59,32.31,17.83,42.58,5.93,9.76,11.54,19.61,18.78,28.48l19,21.49c4.5,4.5,9.31,8.42,14,12.62C207.27,409.62,225.67,420,242.86,428A203.3,203.3,0,0,0,283,441.54c3.85.88,7.27,1.53,11.3,2.2l17.89,2.35c4.12.47,8.65.41,12.85.64l12.44,0c4-.33,8.86-.09,12.87-.62l17.63-2.26c14.3-1.89,28.55-6.7,42-11.66a194.43,194.43,0,0,0,35.74-17.89l17.67-12.17A123,123,0,0,0,474.38,393l5.36-4.94a37.11,37.11,0,0,0,3.51-3.24c2.68-2.68,7.41-7.24,9.68-10.22,1-1.3,2-2.21,3.14-3.6l11.87-15.14c5.85-7.82,10.57-16.31,15.31-24.84a178.16,178.16,0,0,0,8.58-18.07,203.58,203.58,0,0,0,12.48-41.18c.74-4,1.35-7.45,1.93-11.57a219.05,219.05,0,0,0-13.85-113.52,210.35,210.35,0,0,0-17.87-34.71L493.36,84.06a19.77,19.77,0,0,1-1.6-1.94L487,77c-3.43-3.9-11-10.62-15.46-14.39A204.84,204.84,0,0,0,432.34,36C411,25.17,387.52,16.81,363,13.42c-13.81-1.91-23.65-2.14-37.34-2.15h-1.34a175.77,175.77,0,0,0-24.16,2.11C276,16.73,251.19,24.6,230.48,36.07a258.1,258.1,0,0,0-24.42,15l-7.51,5.64c-1.22.91-2.42,1.8-3.58,2.82-6.37,5.58-13,10.81-18.78,17.1l-.17.18-1.65,1.9c-1.12,1.22-2.31,2.14-3.36,3.4-7.19,8.61-10.58,12.72-17.44,22-12.69,17.11-24.1,41.36-30.11,62.28C118.09,185.05,114.46,203.82,114.46,223.85Z" transform="translate(-46.23 -1.27)"/><path class="cls-2" d="M273.74,102.7l5.77,47.51c-7.16.41-7,5.8-5.27,8.21,2.23,3.17,9.09,1.81,13.56,2.1-1,.83-4.37,2-5.93,2.73-2.07,1-3.73,1.83-5.69,2.83-17.72,9-33.76,26.3-42.35,44a132.51,132.51,0,0,0-9.53,25,147.91,147.91,0,0,0-4.67,29.69c-.32,5.57-.66,29,2,32.43,1.8,2.34,19.75,8.2,24.38,10.07l18.82,7.1a64.6,64.6,0,0,1,6.35,2.53c3.74,15.85,6.7,32.3,10,48.21.88,4.21,1.05,8.64,5.43,9.24H374c4.41-.65,4.55-4.91,5.41-9.2L389.47,317l1.46-.8c.58-.23,1-.34,1.55-.57l21.9-8.29c4.35-1.68,22.71-7.93,24.47-10,2.89-3.35,2.49-26.46,2.17-32.21-1.59-28.83-10.57-54.89-27.77-75.59-10-12-20.21-19.39-34.24-26.15-1.89-.91-4.62-1.6-6.17-2.84,4.52-.33,11.33,1.05,13.55-2.11a5.49,5.49,0,0,0,.17-5.81c-1.26-1.85-2.67-2.19-5.39-2.43l5.71-47.48c4-2,5.11-2.26,7.55-5.2,6.78-8.14,3-21.2-8.17-24.21a15.86,15.86,0,0,0-17.68,7.21c-5.88,10.57,2.32,17.64,2.85,18.93-2.49,2.22-18,12.92-19.23,13.27a49.44,49.44,0,0,0-6.11-6.31c-1.3-1.26-5.59-5-6.13-6.25,2.19-2.33,3.69-3.23,5.07-7a15.35,15.35,0,0,0-14.71-20.42c-14.6,0-21.5,18.09-9.57,27.25-1.17,2.43-9.45,8.86-12.32,12.68-1.77-.45-7.86-5.09-9.74-6.48-3-2.23-6.55-4.73-9.58-6.66.82-1.71,3.55-3.35,4.63-8.31,2.41-11-8-21-19.36-17.95a15.18,15.18,0,0,0-8.35,24c2.37,3,3.72,3.39,7.71,5.38ZM230.6,290.39c-2.63-38,3.47-71.69,28.94-99l9.77-8.7c14.74-10.69,31.4-17.84,54.71-19,69.38-3.49,108.45,48.09,106.76,114.59-.37,14.45-.32,12-4.75,13.7s-8.93,3.43-13.39,5.08c-9,3.31-17.85,6.71-26.8,10.13-2.74,1-4.65,1.36-5.64,3.61-.69,1.54-4.33,20.2-4.9,22.84-2.1,9.78-3.81,20.95-6.4,30.55l-77.16,0c-2.46-8.6-6.49-30.86-8.81-42-.71-3.38-1.69-11.36-3.7-13-1.45-1.17-30.66-11.9-36.63-14.17-3.71-1.41-8.7-3-12-4.57ZM368.11,216a33,33,0,0,1,37.61,27.23c3.12,19.78-11.78,34.79-28.2,37.12A33.19,33.19,0,0,1,339.91,253c-3-19.81,11.64-34.43,28.2-37ZM285.16,109.45l11.75,8.14c1.93,1.37,3.85,2.72,5.82,4.13,1.74,1.25,3.87,3.34,6.84,2.78,2.19-.4,4.56-3,5.71-4.22,3-3,12.46-12.62,15-14.66,3.35,2.83,6.83,6.5,10.11,9.64,8.8,8.44,9.21,12.4,17.47,6.45l11.65-8.24c1.52-1.06,4.52-3.48,6-4l-5,40.82L290,150.1l-4.85-40.65Zm-1.65,106.46c17.56-2.34,29.68,8.31,34.81,19.24,7.46,15.91-.95,31.94-10.13,38.7-15.09,11.09-35.63,8.72-47.55-6.9-1.32-1.73-4.36-6.47-4.06-9.24a5.21,5.21,0,0,1,8.25-3.49c1.72,1.29,3.49,6,5.35,8.16,10.42,11.91,28.61,10.15,36.65-2,9.56-14.4.08-30.57-13.25-33.89a23,23,0,0,0-26.83,12.95c-1.88,4.26-6.15,4.42-8.55,2.2-5.57-5.17,6.45-23.25,25.31-25.76Zm85.42,10.24a22.71,22.71,0,0,1,26.42,18.3c2.38,13.44-7.68,23.75-18.52,25.66a22.85,22.85,0,0,1-26.49-18c-2.53-13.75,7.45-24,18.59-26Zm-65,99.71c0-2.08-.21-4.49.83-6a5.39,5.39,0,0,1,4.58-2.3c5.56.19,5,5.77,5,8.4l10.72,0c0-4.48.33-8.43,5.22-8.42s5.21,3.91,5.21,8.42l10.72-.06c0-4.38.41-8.48,5.37-8.36,4.7.12,5.05,4,5.05,8.32,2.19.24,4.45-.25,6.23.78a5,5,0,0,1,2.58,4.54c-.09,5.84-6.84,4.87-8.78,5.05-.15,4.58-.08,9.13-5.43,9-5.87-.18-5-6.4-5-9H335.58c-.24,4.67,0,9-5.26,9-6.11,0-5.15-6.63-5.27-9.06l-10.64.08c-.09,2.45.82,9.12-5.39,9-5.9-.14-5-6.48-5.09-9-1.69-.18-9.07.81-8.78-5.4.26-5.86,7.05-4.76,8.81-5ZM330.32,292c-2.47,2.47-4.69,8.39-7.17,10.3-4.12,3.17-10.13-1-8.06-5.94l6.75-10.67c1.26-1.92,2.21-3.38,3.34-5.18,3-4.72,7.29-4.77,10.41.23l10,15.63c2.14,5-4.23,9.24-8.26,5.77-2.14-1.84-4.66-7.78-7-10.14Zm50.09-208.7c6.26-2.34,9.87,6.74,3.88,9.33-6.23,2.71-10.74-6.76-3.88-9.33Zm-51.67-.13c7-2.13,9.29,8.21,2.9,9.73-6.71,1.59-9.05-7.86-2.9-9.73Zm-52.18.25c6.47-2.81,10,6.92,3.79,9.3a5.22,5.22,0,0,1-6.77-3C272.63,87.08,273.7,84.7,276.56,83.46Z" transform="translate(-46.23 -1.27)"/><path class="cls-1" d="M56.23,521.38v.23c0,4.75.69,4.66,2.54,9.68l8.77,22.5c.94,2.56,1.88,5.07,2.84,7.46s2,4.85,2.93,7.37c3.55,9.84,5.22,17,2.72,27.69A73.25,73.25,0,0,1,73.41,604L58.92,641.38c-1.12,2.77-2.38,5.59-2.69,8.37v2.42a10.23,10.23,0,0,0,9.23,8.56H606.54c4.77,0,9.23-5.26,9.23-8.53V649a11.34,11.34,0,0,0-1.12-3.48c-.48-1.2-.92-2.5-1.47-3.86-2.84-7.08-16.31-41.78-17.14-45-2.65-10.45-.83-18.18,2.55-27.7l5.87-15.1c1-2.85,11.31-28,11.31-30.27v-.33c0-3.31-.22-5.41-2.91-8.13a10.37,10.37,0,0,0-6.32-2.92H65.46C61.21,512.14,56.23,516.68,56.23,521.38Z" transform="translate(-46.23 -1.27)"/><path class="cls-3" d="M396.53,571.45c-8.51,1.68-11,10.77-10.35,20.65.6,8.55,4.94,17.5,14.49,15.71,14.93-2.79,14.2-40-4.14-36.36Zm-1.23-12.18c18.15-1.93,28.9,10.11,30,26.85,1.19,17.8-6.9,32-23.2,33.88-18.15,2.15-29-10.2-30.32-26.79-1.43-18.52,6.79-32.16,23.5-33.94Zm62.09,0c-16.81,1.67-25,15.28-23.72,33.59,1.16,16.61,11.85,29.1,29.89,27.22,16.33-1.71,24.77-15.58,23.68-33.63-1-16.89-11.66-29-29.85-27.18Zm-135.6,12.65,15.82.06.05,47.16,14.13,0,0-47.15h16l0-11.75H321.86l-.07,11.7Zm-50.41,0,15.82.06.06,47.16,14.12,0,0-47.15h15.93V560.19H271.45l-.07,11.7ZM223.17,619l18.19-58.8h16.89l18.13,58.9c-18,0-14.25,1.82-16.41-6.64-.59-2.34-1.27-4.59-1.67-6.86l-17.41,0-3.36,13.47L223.17,619Zm20.49-24.39h11.78c-.4-3.42-2.06-8.48-2.92-12.06-.63-2.66-1.85-10.15-3.17-11.75l-5.69,23.8ZM179.2,571.78,195,572l.08,47.14h14.11l0-47.16h15.94V560.26l-45.91-.07,0,11.59Zm279.39-.37c9.52-1.55,13.78,7.09,14.29,15.73.56,9.49-2.25,18.93-10.11,20.62-9.63,2.06-14-7-14.69-15.63C447.37,582.48,450,572.79,458.59,571.41Z" transform="translate(-46.23 -1.27)"/></svg>
