<svg id="Ebene_1" data-name="Ebene 1" xmlns="http://www.w3.org/2000/svg" viewBox="0 0 693.05 977.77"><defs><style>.cls-1{fill:#ff3366;}</style></defs><title>Schloss geschlossen</title><path class="cls-1" d="M760.25,457.71h-633a30.09,30.09,0,0,0-30,30V846.28h0c1.51,107.35,156.07,194.1,346.51,194.1s345-86.75,346.5-194.1h0V487.71A30.09,30.09,0,0,0,760.25,457.71ZM481,773.79V854a30.09,30.09,0,0,1-30,30H433.19a30.09,30.09,0,0,1-30-30V772.67A74.59,74.59,0,1,1,481,773.79Z" transform="translate(-97.2 -62.62)"/><path class="cls-1" d="M449.83,62.62H435.46c-137.5,0-250,112.5-250,250V424.67H275.4V314.34A163.65,163.65,0,0,1,439.05,150.7h0a175,175,0,0,1,175,175v99h85.78v-112C699.83,175.12,587.33,62.62,449.83,62.62Z" transform="translate(-97.2 -62.62)"/></svg>
