<svg id="Ebene_1" data-name="Ebene 1" xmlns="http://www.w3.org/2000/svg" viewBox="0 0 1028.8 975.57"><defs><style>.cls-1{fill:#66cccc;}.cls-2{fill:none;}</style></defs><title>Schloss offen</title><path class="cls-1" d="M1603.78,457.89h-633a30.09,30.09,0,0,0-30,30V846.47h0c1.52,107.34,156.07,194.1,346.51,194.1s345-86.76,346.51-194.1h0V487.89A30.09,30.09,0,0,0,1603.78,457.89ZM1324.51,774v80.24a30.09,30.09,0,0,1-30,30h-17.8a30.09,30.09,0,0,1-30-30V772.85a74.59,74.59,0,1,1,77.8,1.13Z" transform="translate(-940.73 -65)"/><path class="cls-2" d="M767.94,88.08h0a175,175,0,0,1,175,175v98a1,1,0,0,1-1,1H604.29a0,0,0,0,1,0,0V251.73A163.64,163.64,0,0,1,767.94,88.08Z"/><path class="cls-1" d="M1719.53,65h-14.38c-137.5,0-250,112.5-250,250V427.05h89.95V316.73a163.64,163.64,0,0,1,163.64-163.65h0a175,175,0,0,1,175,175v99h85.79V315C1969.53,177.5,1857,65,1719.53,65Z" transform="translate(-940.73 -65)"/></svg>
