<svg id="Ebene_1" data-name="Ebene 1" xmlns="http://www.w3.org/2000/svg" viewBox="0 0 360 385"><defs><style>.cls-1{fill:yellow;}</style></defs><title>Bubble Icon</title><path class="cls-1" d="M806.5,424A76.22,76.22,0,0,0,755,443.93L702.85,412.4a92.43,92.43,0,0,0-.22-55.47l52.52-31.73a76.48,76.48,0,1,0-22.49-36.7l-52.4,31.66a92,92,0,1,0,.49,129.18L732.6,480.7A76.5,76.5,0,1,0,806.5,424ZM615,354.81c-3.73,0-16,2-23.5,12.69a32.54,32.54,0,0,0-6.1,19.61c-.82,6.41-6.72,11.39-13.9,11.39-7.39,0-13.42-5.28-14-12l0,.05c0-.23,0-.45,0-.68a3,3,0,0,1,0-.31c0-.27,0-.54,0-.81.93-31.54,26-56.78,57-56.78l0,0c.18,0,.35,0,.53,0a13.41,13.41,0,1,1,0,26.81Z" transform="translate(-523 -192)"/></svg>
