<svg data-name="Profilsuche" xmlns="http://www.w3.org/2000/svg" viewBox="0 0 128 128">
  <path fill="#FF3366" d="M125.28 112.31l-26.2-26a2.64 2.64 0 01-.34-3.31 52.83 52.83 0 009-29.58C107.78 24 83.6 0 53.89 0S0 24 0 53.41s24.17 53.42 53.89 53.42a54 54 0 0028.66-8.2 2.64 2.64 0 013.25.37l26.55 26.32a9.18 9.18 0 1012.93-13zM53.89 91.16A37.75 37.75 0 1192 53.41a37.95 37.95 0 01-38.11 37.75zM79.6 69.94c-5.34 7.87-15.43 13-25.71 13s-20.37-5.18-25.7-13c.19-3.89 1.24-6.24 6.5-7.45 6.93-1.58 14.81-3 11.52-9-9.75-17.82-2.78-27.92 7.68-27.92 10.27 0 17.41 9.73 7.69 27.92-3.19 6 4.43 7.4 11.51 9 5.26 1.21 6.31 3.56 6.51 7.45z"/>
</svg>

